#!OML:ASF H:\Terrain\Patient Classification 1\Walking\liu\liu.ASF
:FULLY-SPECIFIED
:DEGREES
17
root 11.406839 23.848499 -51.921745 10.639515 -6.258690 -7.844295
lowerback -9.289605 1.718970 2.408235
upperback -1.976655 2.021700 4.594200
thorax 3.114870 1.013270 3.540975
lowerneck -29.361599 -7.463610 -18.320850
upperneck 23.428200 -9.679214 22.814548
head 13.586010 -3.351810 9.654690
rclavicle 0.000000 0.000000
rhumerus -61.948502 29.093399 -132.057449
rradius 93.986855
rwrist -52.185299
rhand -45.889648 -48.664352
rfingers 10.687531
rthumb -5.835360 -93.580650
lclavicle 0.000000 0.000000
lhumerus -59.466602 -11.527110 134.915848
lradius 43.024502
lwrist 10.128494
lhand -10.969245 -35.285553
lfingers 10.687531
lthumb 27.854851 8.414835
rfemur 7.574355 9.626640 46.700100
rtibia 17.464649
rfoot -29.376900 -2.051955
rtoes -8.777805
lfemur -60.183300 -0.458393 -11.995905
ltibia 28.554150
lfoot -21.487949 22.561050
ltoes -19.413450
18
root 11.437784 23.838749 -51.709648 10.851405 -6.596475 -8.420490
lowerback -9.675435 1.756905 3.044160
upperback -1.943235 2.007660 4.802970
thorax 3.374550 1.009043 3.409455
lowerneck -29.425949 -7.429080 -18.363300
upperneck 23.331600 -9.561794 22.636650
head 13.539946 -3.315675 9.610485
rclavicle -0.000000 0.000000
rhumerus -62.194504 29.604750 -132.618896
rradius 94.225052
rwrist -52.638145
rhand -46.617451 -44.467651
rfingers 10.687531
rthumb -6.538125 -89.370300
lclavicle -0.000000 0.000000
lhumerus -59.725800 -11.785620 135.212845
lradius 42.845848
lwrist 10.065360
lhand -11.248260 -35.915100
lfingers 10.687531
lthumb 27.586502 7.810905
rfemur 9.001890 9.428970 47.086201
rtibia 15.818701
rfoot -28.578901 -1.641480
rtoes -10.008780
lfemur -60.618301 -1.706205 -10.296989
ltibia 28.197750
lfoot -23.015699 24.127350
ltoes -15.866251
19
root 11.455305 23.841749 -51.494099 10.682880 -7.577850 -9.139515
lowerback -9.565530 2.121390 4.077345
upperback -1.841235 2.428065 4.612935
thorax 3.442290 1.225337 2.667495
lowerneck -29.972252 -7.333770 -17.688450
upperneck 23.948700 -9.583590 22.366650
head 13.818615 -3.282435 9.412545
rclavicle 0.000000 -0.000000
rhumerus -62.352299 29.094448 -133.579498
rradius 94.106400
rwrist -52.364853
rhand -47.136299 -43.872150
rfingers 10.687531
rthumb -7.039155 -88.764153
lclavicle 0.000000 -0.000000
lhumerus -60.313202 -13.033501 135.214050
lradius 43.272152
lwrist 10.532100
lhand -11.431049 -34.944298
lfingers 10.687531
lthumb 27.410700 8.798160
rfemur 10.902750 10.074930 47.599052
rtibia 14.247720
rfoot -27.907650 -1.447825
rtoes -10.252319
lfemur -60.395851 -2.472510 -8.520300
ltibia 28.035000
lfoot -24.045599 25.853100
ltoes -15.844950
20
root 11.429595 23.848650 -51.309753 12.852989 -10.401735 -10.296885
lowerback -11.202585 3.187500 5.275845
upperback -2.524935 3.707625 4.229850
thorax 3.700740 1.867455 1.759950
lowerneck -30.075150 -7.121640 -16.582951
upperneck 24.325499 -9.596624 22.108799
head 13.921801 -3.234990 9.136410
rclavicle -0.000000 -0.000000
rhumerus -62.783699 28.451550 -135.043198
rradius 94.108498
rwrist -52.081501
rhand -46.238098 -47.925003
rfingers 10.687531
rthumb -6.171855 -92.834999
lclavicle -0.000000 -0.000000
lhumerus -61.166397 -14.274494 134.831406
lradius 43.802700
lwrist 10.809464
lhand -11.628645 -33.795898
lfingers 10.687531
lthumb 27.220499 9.964230
rfemur 10.552530 13.029554 48.128849
rtibia 12.096750
rfoot -25.940548 -1.517655
rtoes -10.989135
lfemur -61.895401 -0.724635 -6.366090
ltibia 27.862650
lfoot -24.623100 27.296852
ltoes -17.109150
21
root 11.461861 23.830950 -51.089848 12.971865 -10.590825 -10.272449
lowerback -11.486145 3.082680 5.578125
upperback -2.583855 3.534345 4.055850
thorax 3.815580 1.783230 1.404595
lowerneck -29.535301 -6.954915 -16.531651
upperneck 23.888700 -9.411255 22.254900
head 13.652220 -3.157470 9.192810
rclavicle -0.000000 0.000000
rhumerus -63.129601 28.769550 -135.886658
rradius 94.180649
rwrist -51.814648
rhand -44.940750 -51.655800
rfingers 10.687531
rthumb -4.918920 -96.587700
lclavicle -0.000000 0.000000
lhumerus -61.824600 -14.383784 134.779663
lradius 43.913250
lwrist 10.455405
lhand -12.171780 -32.946152
lfingers 10.687531
lthumb 26.697899 10.862100
rfemur 12.166921 12.888150 47.928299
rtibia 10.207575
rfoot -24.471600 -1.583040
rtoes -11.343075
lfemur -62.327995 -0.936855 -6.229200
ltibia 28.051649
lfoot -25.148100 27.320549
ltoes -18.620251
22
root 11.553990 23.790150 -50.836952 11.145885 -8.179530 -9.721186
lowerback -10.499895 2.095245 5.862630
upperback -1.943895 2.235675 3.935370
thorax 3.922440 1.145841 0.977036
lowerneck -29.699551 -7.008090 -16.875000
upperneck 23.783850 -9.439860 22.635599
head 13.678095 -3.149820 9.385140
rclavicle -0.000000 -0.000000
rhumerus -63.141449 28.981651 -136.205246
rradius 94.067245
rwrist -51.356102
rhand -44.782200 -48.279152
rfingers 10.687531
rthumb -4.765815 -93.213303
lclavicle -0.000000 -0.000000
lhumerus -61.931847 -14.441205 134.881348
lradius 43.390499
lwrist 9.881565
lhand -12.588045 -32.933250
lfingers 10.687531
lthumb 26.297401 10.910955
rfemur 16.048649 9.791700 47.601151
rtibia 7.830540
rfoot -23.783401 -1.628610
rtoes -11.991675
lfemur -61.563454 -2.602800 -7.607385
ltibia 27.965248
lfoot -24.422401 25.921200
ltoes -19.823851
23
root 11.523315 23.782799 -50.652752 13.648215 -11.807850 -11.423250
lowerback -12.663540 3.459435 6.623235
upperback -2.349660 3.848235 4.342380
thorax 4.749045 1.955910 1.209078
lowerneck -30.192749 -7.117575 -16.793400
upperneck 24.098099 -9.626040 22.713900
head 13.904039 -3.200025 9.384420
rclavicle -0.000000 0.000000
rhumerus -63.231895 28.954800 -136.659454
rradius 93.988647
rwrist -51.303600
rhand -45.056549 -44.041801
rfingers 10.687531
rthumb -5.030760 -88.971901
lclavicle -0.000000 0.000000
lhumerus -61.976700 -14.845936 134.960846
lradius 42.873749
lwrist 9.678616
lhand -12.833070 -33.604950
lfingers 10.687531
lthumb 26.061600 10.260240
rfemur 16.822201 13.636709 48.737549
rtibia 2.772450
rfoot -20.457150 -2.508270
rtoes -16.035149
lfemur -62.934002 0.913737 -5.510010
ltibia 28.030052
lfoot -23.876400 27.072601
ltoes -19.860300
24
root 11.625284 23.708401 -50.371651 10.861605 -8.176425 -10.171740
lowerback -10.874640 2.018100 6.281250
upperback -1.662855 2.057895 4.140150
thorax 4.424295 1.068288 0.953077
lowerneck -29.977802 -7.122690 -16.845751
upperneck 23.959049 -9.598215 22.608601
head 13.810095 -3.211515 9.353294
rclavicle -0.000000 -0.000000
rhumerus -63.666298 29.163750 -137.031601
rradius 93.967194
rwrist -51.052498
rhand -45.446999 -45.025349
rfingers 10.687531
rthumb -5.407905 -89.949303
lclavicle -0.000000 -0.000000
lhumerus -62.360847 -14.824471 135.238342
lradius 42.688351
lwrist 9.454741
lhand -12.942810 -33.646652
lfingers 10.687531
lthumb 25.956001 10.227825
rfemur 21.841499 9.071550 48.012600
rtibia 0.000000
rfoot -20.115000 -2.885670
rtoes -21.044701
lfemur -61.476601 -1.032816 -8.388525
ltibia 28.075050
lfoot -22.648199 24.167698
ltoes -20.154301
25
root 11.634825 23.715300 -50.167202 10.274115 -11.936115 -10.308900
lowerback -9.761175 3.085395 5.766390
upperback -1.508940 3.572475 4.366965
thorax 3.961680 1.812285 1.584390
lowerneck -29.651398 -7.047990 -16.978199
upperneck 23.608501 -9.410250 22.454399
head 13.600380 -3.165075 9.334500
rclavicle -0.000000 -0.000000
rhumerus -64.097244 29.495251 -137.331146
rradius 93.764252
rwrist -50.476799
rhand -45.521851 -45.713699
rfingers 10.687531
rthumb -5.480085 -90.636299
lclavicle -0.000000 -0.000000
lhumerus -62.682899 -14.273535 135.439056
lradius 42.190651
lwrist 8.544645
lhand -13.073774 -33.647247
lfingers 10.687531
lthumb 25.829849 10.238310
rfemur 23.369101 12.274364 47.718147
rtibia -0.000000
rfoot -19.001699 -2.928705
rtoes -22.089899
lfemur -59.433002 0.691024 -7.820235
ltibia 28.434299
lfoot -23.425949 25.529850
ltoes -18.768301
26
root 11.704365 23.705250 -49.928848 11.097179 -9.698700 -10.225904
lowerback -11.040660 2.274660 6.070410
upperback -1.758150 2.397255 4.485390
thorax 4.409700 1.231998 1.464577
lowerneck -29.723850 -6.965805 -17.153250
upperneck 23.569050 -9.225180 22.426500
head 13.576231 -3.090075 9.380820
rclavicle -0.000000 -0.000000
rhumerus -64.270203 29.851799 -137.584503
rradius 93.352646
rwrist -49.913399
rhand -45.240448 -45.038101
rfingers 10.687531
rthumb -5.208435 -89.965195
lclavicle -0.000000 -0.000000
lhumerus -62.826302 -13.740360 135.576904
lradius 41.467201
lwrist 7.513230
lhand -13.369260 -33.832199
lfingers 10.687531
lthumb 25.545450 10.078080
rfemur 23.205601 9.970020 47.373901
rtibia -0.000000
rfoot -18.508202 -2.379240
rtoes -24.342300
lfemur -61.185299 1.127295 -9.402135
ltibia 28.558050
lfoot -21.514648 22.974600
ltoes -21.178650
